<?xml version="1.0" encoding="UTF-8"?>
<svg width="24px" height="24px" viewBox="0 0 24 24" version="1.1" xmlns="http://www.w3.org/2000/svg" xmlns:xlink="http://www.w3.org/1999/xlink">
    <title>notion</title>
    <defs>
        <rect id="path-1" x="0" y="0" width="24" height="24"></rect>
    </defs>
    <g id="Symbols" stroke="none" stroke-width="1" fill="none" fill-rule="evenodd">
        <g id="notion">
            <mask id="mask-2" fill="white">
                <use xlink:href="#path-1"></use>
            </mask>
            <use id="Rectangle" fill-opacity="0" fill="#D8D8D8" xlink:href="#path-1"></use>
            <path d="M11.9942001,24 C18.5712905,24 24,18.5712905 24,12.0057999 C24,5.42870952 18.5596907,0 11.9826003,0 C5.41710971,0 0,5.42870952 0,12.0057999 C0,18.5712905 5.42870952,24 11.9942001,24 Z" id="Path" fill="#7BB342" fill-rule="nonzero" mask="url(#mask-2)"></path>
            <path d="M10.4166264,18.060899 C9.97583374,18.060899 9.62783954,17.8637023 9.29144514,17.4693088 L5.95070082,13.3977767 C5.7419043,13.142581 5.63750604,12.8525858 5.63750604,12.5741904 C5.63750604,11.9478009 6.12469792,11.4722088 6.71628806,11.4722088 C7.07588207,11.4722088 7.37747704,11.6230063 7.66747221,11.9710005 L10.381827,15.3929435 L15.6133398,7.04108265 C15.8685355,6.62348961 16.2049299,6.4262929 16.5645239,6.4262929 C17.1445143,6.4262929 17.701305,6.83228613 17.701305,7.44707588 C17.701305,7.72547124 17.5621073,8.01546641 17.39971,8.27066216 L11.5070082,17.4345094 C11.2286129,17.8521025 10.857419,18.060899 10.4166264,18.060899 Z" id="Path" fill="#FFFFFF" fill-rule="nonzero" mask="url(#mask-2)"></path>
        </g>
    </g>
</svg>