<?xml version="1.0" encoding="UTF-8"?>
<svg width="26px" height="27px" viewBox="0 0 26 27" version="1.1" xmlns="http://www.w3.org/2000/svg" xmlns:xlink="http://www.w3.org/1999/xlink">
    <title>Group-4</title>
    <g id="feed" stroke="none" stroke-width="1" fill="none" fill-rule="evenodd">
        <g id="Group-4" transform="translate(0.000000, 0.029437)">
            <circle id="Oval" fill-rule="nonzero" cx="13" cy="13" r="13"></circle>
            <path d="M17.3014115,8.68715861 C17.5770608,8.96280789 17.5770608,9.40972366 17.3014115,9.68537294 L13.9859418,12.9994217 L17.3013615,16.3146271 C17.5770108,16.5902764 17.5770108,17.0371921 17.3013615,17.3128414 C17.0257122,17.5884907 16.5787965,17.5884907 16.3031472,17.3128414 L12.9879418,13.9974217 L9.67394303,17.3128414 C9.39829375,17.5884907 8.95137798,17.5884907 8.6757287,17.3128414 C8.40007943,17.0371921 8.40007943,16.5902764 8.6757287,16.3146271 L11.9899418,12.9994217 L8.67567871,9.68537294 C8.40002943,9.40972366 8.40002943,8.96280789 8.67567871,8.68715861 C8.95132798,8.41150934 9.39824376,8.41150934 9.67389303,8.68715861 L12.9879418,12.0014217 L16.3031972,8.68715861 C16.5788465,8.41150934 17.0257622,8.41150934 17.3014115,8.68715861 Z" id="Combined-Shape" fill="currentColor"></path>
        </g>
    </g>
</svg>