<svg xmlns="http://www.w3.org/2000/svg" xmlns:xlink="http://www.w3.org/1999/xlink" width="53px" height="48px" preserveAspectRatio="xMidYMid meet" viewBox="0 0 53 48" version="1.1">
    <g id="seed-stage" stroke="none" stroke-width="1" fill="none" fill-rule="evenodd">
        <g id="user-page" transform="translate(-1009.000000, -583.000000)" fill="#B7B7B7">
            <g id="Group-2" transform="translate(221.000000, 411.000000)">
                <g id="Group-13" transform="translate(0.000000, 66.000000)">
                    <g id="Group-14-Copy-2" transform="translate(664.000000, 42.000000)">
                        <g id="Bitmap">
                            <g id="Group-8" transform="translate(124.000000, 64.000000)">
                                <g id="Group" transform="translate(0.500000, 0.000000)">
                                    <circle id="Oval" cx="10.8" cy="8.05714286" r="8.05714286"/>
                                    <path d="M12.2765769,25.4980138 C6.99765624,24.4004332 -0.979357464,38.1764277 0.0989384002,43.2825075 C1.17723426,48.3885874 14.4238409,47.771551 26.3527812,47.8857755 C38.2817215,48 45.0013139,47.6638734 49.2109856,46.4199783 C51.8989544,45.6257236 52.505241,43.0551544 51.8989544,39.5485218 C50.1484777,29.4241372 42.95371,12 38.9902905,12 C33.6541203,12 31.0509142,31.5990176 26.3527812,33.6324414 C21.6546482,35.6658652 17.5554976,26.5955944 12.2765769,25.4980138 Z" id="Path-2"/>
                                </g>
                            </g>
                        </g>
                    </g>
                </g>
            </g>
        </g>
    </g>
</svg>