<svg width="26" height="25" viewBox="0 0 26 25" fill="none" xmlns="http://www.w3.org/2000/svg">
<g filter="url(#filter0_d_442_513129)">
<rect width="0.999991" height="0.999999" transform="matrix(-1 0 0 1 14 5.125)" fill="white"/>
<rect width="0.999991" height="1" transform="matrix(-1 0 0 1 14 6.125)" fill="white"/>
<rect width="0.999991" height="1" transform="matrix(-1 0 0 1 14 7.125)" fill="white"/>
<rect width="0.999991" height="1" transform="matrix(-1 0 0 1 14 8.125)" fill="white"/>
<rect width="0.999991" height="1" transform="matrix(-1 0 0 1 14 9.125)" fill="white"/>
<rect width="0.999991" height="0.999999" transform="matrix(-1 0 0 1 14 10.125)" fill="white"/>
<rect width="0.99999" height="0.999999" transform="matrix(-1 0 0 1 15 10.125)" fill="#DBDBDB"/>
<rect width="0.99999" height="1" transform="matrix(-1 0 0 1 16 9.125)" fill="#DBDBDB"/>
<rect width="0.999989" height="1" transform="matrix(-1 0 0 1 17 9.125)" fill="#DBDBDB"/>
<rect width="0.99999" height="1" transform="matrix(-1 0 0 1 18 9.125)" fill="#DBDBDB"/>
<rect width="0.99999" height="0.999999" transform="matrix(-1 0 0 1 19 10.125)" fill="#DBDBDB"/>
<rect width="0.999992" height="0.999999" transform="matrix(-1 0 0 1 20 10.125)" fill="white"/>
<rect width="0.999992" height="0.999998" transform="matrix(-1 0 0 1 20 11.125)" fill="white"/>
<rect width="0.999992" height="0.999997" transform="matrix(-1 0 0 1 20 12.125)" fill="white"/>
<rect width="0.999992" height="0.999999" transform="matrix(-1 0 0 1 20 13.125)" fill="white"/>
<rect width="0.99999" height="1" transform="matrix(-1 0 0 1 19 14.125)" fill="white"/>
<rect width="0.99999" height="0.999997" transform="matrix(-1 0 0 1 18 15.125)" fill="white"/>
<rect width="0.999989" height="0.999997" transform="matrix(-1 0 0 1 17 15.125)" fill="white"/>
<rect width="0.99999" height="1.00001" transform="matrix(-1 0 0 1 18 16.125)" fill="white"/>
<rect width="0.999989" height="1.00001" transform="matrix(-1 0 0 1 17 16.125)" fill="white"/>
<rect width="0.999992" height="0.999997" transform="matrix(-1 0 0 1 20 15.125)" fill="white"/>
<rect width="0.99999" height="0.999997" transform="matrix(-1 0 0 1 19 15.125)" fill="white"/>
<rect width="0.99999" height="0.999997" transform="matrix(-1 0 0 1 16 15.125)" fill="white"/>
<rect width="0.99999" height="0.999997" transform="matrix(-1 0 0 1 15 15.125)" fill="white"/>
<rect width="0.99999" height="1.00001" transform="matrix(-1 0 0 1 16 16.125)" fill="white"/>
<rect width="0.99999" height="1.00001" transform="matrix(-1 0 0 1 15 16.125)" fill="white"/>
<rect width="0.99999" height="0.999996" transform="matrix(-1 0 0 1 16 17.125)" fill="white"/>
<rect width="0.99999" height="0.999996" transform="matrix(-1 0 0 1 15 17.125)" fill="white"/>
<rect width="0.999991" height="0.999997" transform="matrix(-1 0 0 1 14 15.125)" fill="white"/>
<rect width="0.999991" height="1.00001" transform="matrix(-1 0 0 1 14 16.125)" fill="white"/>
<rect width="0.999991" height="0.999996" transform="matrix(-1 0 0 1 14 17.125)" fill="white"/>
<rect width="0.999991" height="1" transform="matrix(-1 0 0 1 14 18.125)" fill="#DBDBDB"/>
<rect width="0.99999" height="1" transform="matrix(-1 0 0 1 15 18.125)" fill="#DBDBDB"/>
<rect width="0.99999" height="1" transform="matrix(-1 0 0 1 16 18.125)" fill="#DBDBDB"/>
<rect width="0.99999" height="1" transform="matrix(-1 0 0 1 15 14.125)" fill="white"/>
<rect width="0.999991" height="1" transform="matrix(-1 0 0 1 14 14.125)" fill="white"/>
<rect width="0.999991" height="0.999999" transform="matrix(-1 0 0 1 14 13.125)" fill="white"/>
<rect width="0.999991" height="0.999997" transform="matrix(-1 0 0 1 14 12.125)" fill="white"/>
<rect width="0.999991" height="0.999998" transform="matrix(-1 0 0 1 14 11.125)" fill="white"/>
<rect width="0.999991" height="0.999999" transform="matrix(-1 0 0 1 13 5.125)" fill="white"/>
<rect width="0.999991" height="1" transform="matrix(-1 0 0 1 13 6.125)" fill="white"/>
<rect width="0.999991" height="1" transform="matrix(-1 0 0 1 13 7.125)" fill="white"/>
<rect width="0.999991" height="1" transform="matrix(-1 0 0 1 13 8.125)" fill="white"/>
<rect width="0.999991" height="1" transform="matrix(-1 0 0 1 13 9.125)" fill="white"/>
<rect width="0.999991" height="0.999999" transform="matrix(-1 0 0 1 13 10.125)" fill="white"/>
<rect width="0.999991" height="0.999997" transform="matrix(-1 0 0 1 13 15.125)" fill="white"/>
<rect width="0.999991" height="1.00001" transform="matrix(-1 0 0 1 13 16.125)" fill="white"/>
<rect width="0.999991" height="0.999996" transform="matrix(-1 0 0 1 13 17.125)" fill="white"/>
<rect width="0.999991" height="1" transform="matrix(-1 0 0 1 13 18.125)" fill="#DBDBDB"/>
<rect width="0.999991" height="1" transform="matrix(-1 0 0 1 13 14.125)" fill="white"/>
<rect width="0.999991" height="0.999999" transform="matrix(-1 0 0 1 13 13.125)" fill="white"/>
<rect width="0.999991" height="0.999997" transform="matrix(-1 0 0 1 13 12.125)" fill="white"/>
<rect width="0.999991" height="0.999998" transform="matrix(-1 0 0 1 13 11.125)" fill="white"/>
<rect width="0.999992" height="1" transform="matrix(-1 0 0 1 20 9.125)" fill="white"/>
<rect width="0.99999" height="1" transform="matrix(-1 0 0 1 19 9.125)" fill="white"/>
<rect width="0.99999" height="1" transform="matrix(-1 0 0 1 19 8.125)" fill="white"/>
<rect width="0.99999" height="1" transform="matrix(-1 0 0 1 18 8.125)" fill="white"/>
<rect width="0.999989" height="1" transform="matrix(-1 0 0 1 17 8.125)" fill="white"/>
<rect width="0.99999" height="1" transform="matrix(-1 0 0 1 16 8.125)" fill="white"/>
<rect width="0.99999" height="1" transform="matrix(-1 0 0 1 15 8.125)" fill="white"/>
<rect width="0.99999" height="1" transform="matrix(-1 0 0 1 19 7.125)" fill="white"/>
<rect width="0.99999" height="1" transform="matrix(-1 0 0 1 18 7.125)" fill="white"/>
<rect width="0.999989" height="1" transform="matrix(-1 0 0 1 17 7.125)" fill="white"/>
<rect width="0.99999" height="1" transform="matrix(-1 0 0 1 16 7.125)" fill="white"/>
<rect width="0.99999" height="1" transform="matrix(-1 0 0 1 15 7.125)" fill="white"/>
<rect width="0.99999" height="1" transform="matrix(-1 0 0 1 19 6.125)" fill="white"/>
<rect width="0.99999" height="1" transform="matrix(-1 0 0 1 18 6.125)" fill="white"/>
<rect width="0.999989" height="1" transform="matrix(-1 0 0 1 17 6.125)" fill="white"/>
<rect width="0.99999" height="1" transform="matrix(-1 0 0 1 16 6.125)" fill="white"/>
<rect width="0.99999" height="1" transform="matrix(-1 0 0 1 15 6.125)" fill="white"/>
<rect width="0.999992" height="0.999999" transform="matrix(-1 0 0 1 20 5.125)" fill="white"/>
<rect width="0.99999" height="0.999999" transform="matrix(-1 0 0 1 19 5.125)" fill="white"/>
<rect width="0.99999" height="0.999999" transform="matrix(-1 0 0 1 18 5.125)" fill="white"/>
<rect width="0.999989" height="0.999999" transform="matrix(-1 0 0 1 17 5.125)" fill="white"/>
<rect width="0.99999" height="0.999999" transform="matrix(-1 0 0 1 16 5.125)" fill="white"/>
<rect width="0.99999" height="1" transform="matrix(-1 0 0 1 15 9.125)" fill="white"/>
<rect width="0.99999" height="0.999999" transform="matrix(-1 0 0 1 15 5.125)" fill="white"/>
<rect width="0.99999" height="1" transform="matrix(-1 0 0 1 16 4.125)" fill="white"/>
<rect width="0.999989" height="1" transform="matrix(-1 0 0 1 17 4.125)" fill="white"/>
<rect width="0.999989" height="1" transform="matrix(-1 0 0 1 17 3.125)" fill="white"/>
<rect width="0.99999" height="1" transform="matrix(-1 0 0 1 18 3.125)" fill="white"/>
<rect width="0.99999" height="1" transform="matrix(-1 0 0 1 19 3.125)" fill="white"/>
<rect width="0.99999" height="1" transform="matrix(-1 0 0 1 18 4.125)" fill="white"/>
<rect width="0.99999" height="1" transform="matrix(-1 0 0 1 19 4.125)" fill="white"/>
<rect width="0.999992" height="1" transform="matrix(-1 0 0 1 20 4.125)" fill="white"/>
<rect width="0.999985" height="0.999999" transform="matrix(-1 0 0 1 21 5.125)" fill="white"/>
<rect width="0.999992" height="1" transform="matrix(-1 0 0 1 20 6.125)" fill="white"/>
<rect width="0.999985" height="1" transform="matrix(-1 0 0 1 21 6.125)" fill="white"/>
<rect width="0.999992" height="1" transform="matrix(-1 0 0 1 20 7.125)" fill="white"/>
<rect width="0.999985" height="1" transform="matrix(-1 0 0 1 21 7.125)" fill="white"/>
<rect width="0.999992" height="1" transform="matrix(-1 0 0 1 20 8.125)" fill="white"/>
<rect width="0.999985" height="1" transform="matrix(-1 0 0 1 21 8.125)" fill="white"/>
<rect width="0.99999" height="1" transform="matrix(-1 0 0 1 22 6.125)" fill="white"/>
<rect width="0.99999" height="1" transform="matrix(-1 0 0 1 22 7.125)" fill="white"/>
<rect width="0.999985" height="1" transform="matrix(-1 0 0 1 23 8.125)" fill="white"/>
<rect width="0.99999" height="1" transform="matrix(-1 0 0 1 22 8.125)" fill="white"/>
<rect width="0.999985" height="1" transform="matrix(-1 0 0 1 21 9.125)" fill="white"/>
<rect width="0.99999" height="1" transform="matrix(-1 0 0 1 22 9.125)" fill="white"/>
<rect width="0.999985" height="0.999999" transform="matrix(-1 0 0 1 21 10.125)" fill="white"/>
<rect width="0.99999" height="0.999999" transform="matrix(-1 0 0 1 22 10.125)" fill="white"/>
<rect width="0.999985" height="0.999998" transform="matrix(-1 0 0 1 21 11.125)" fill="white"/>
<rect width="0.99999" height="0.999998" transform="matrix(-1 0 0 1 22 11.125)" fill="white"/>
<rect width="0.999985" height="0.999997" transform="matrix(-1 0 0 1 21 12.125)" fill="white"/>
<rect width="0.99999" height="0.999997" transform="matrix(-1 0 0 1 22 12.125)" fill="white"/>
<rect width="0.999985" height="0.999999" transform="matrix(-1 0 0 1 21 13.125)" fill="white"/>
<rect width="0.99999" height="0.999999" transform="matrix(-1 0 0 1 22 13.125)" fill="white"/>
<rect width="0.999985" height="1" transform="matrix(-1 0 0 1 23 9.125)" fill="white"/>
<rect width="0.999985" height="0.999999" transform="matrix(-1 0 0 1 23 10.125)" fill="white"/>
<rect width="0.999985" height="0.999998" transform="matrix(-1 0 0 1 23 11.125)" fill="white"/>
<rect width="0.999985" height="0.999997" transform="matrix(-1 0 0 1 23 12.125)" fill="white"/>
<rect width="0.999985" height="0.999999" transform="matrix(-1 0 0 1 23 13.125)" fill="white"/>
<rect width="0.999989" height="0.999999" transform="matrix(-1 0 0 1 24 10.125)" fill="white"/>
<rect width="0.999989" height="0.999998" transform="matrix(-1 0 0 1 24 11.125)" fill="white"/>
<rect width="0.999989" height="0.999997" transform="matrix(-1 0 0 1 24 12.125)" fill="white"/>
<rect width="0.999989" height="0.999999" transform="matrix(-1 0 0 1 24 13.125)" fill="white"/>
<rect width="0.999992" height="1" transform="matrix(-1 0 0 1 20 14.125)" fill="white"/>
<rect width="0.999985" height="1" transform="matrix(-1 0 0 1 21 14.125)" fill="white"/>
<rect width="0.99999" height="1" transform="matrix(-1 0 0 1 22 14.125)" fill="white"/>
<rect width="0.999985" height="1" transform="matrix(-1 0 0 1 23 14.125)" fill="white"/>
<rect width="0.999989" height="1" transform="matrix(-1 0 0 1 24 14.125)" fill="white"/>
<rect width="0.999985" height="0.999997" transform="matrix(-1 0 0 1 23 15.125)" fill="white"/>
<rect width="0.999989" height="0.999997" transform="matrix(-1 0 0 1 24 15.125)" fill="white"/>
<rect width="0.999985" height="1.00001" transform="matrix(-1 0 0 1 23 16.125)" fill="white"/>
<rect width="0.999989" height="1.00001" transform="matrix(-1 0 0 1 24 16.125)" fill="white"/>
<rect width="0.999985" height="0.999996" transform="matrix(-1 0 0 1 23 17.125)" fill="white"/>
<rect width="0.999989" height="0.999996" transform="matrix(-1 0 0 1 24 17.125)" fill="white"/>
<rect width="0.999985" height="1" transform="matrix(-1 0 0 1 25 14.125)" fill="white"/>
<rect width="0.999985" height="0.999997" transform="matrix(-1 0 0 1 25 15.125)" fill="white"/>
<rect width="0.999985" height="1.00001" transform="matrix(-1 0 0 1 25 16.125)" fill="white"/>
<rect width="0.999985" height="0.999996" transform="matrix(-1 0 0 1 25 17.125)" fill="#DBDBDB"/>
<rect width="0.999989" height="1" transform="matrix(-1 0 0 1 24 18.125)" fill="#DBDBDB"/>
<rect width="0.999985" height="1" transform="matrix(-1 0 0 1 23 18.125)" fill="#DBDBDB"/>
<rect width="0.99999" height="0.999992" transform="matrix(-1 0 0 1 22 19.125)" fill="#DBDBDB"/>
<rect width="0.999985" height="0.999992" transform="matrix(-1 0 0 1 21 19.125)" fill="#DBDBDB"/>
<rect width="0.999992" height="1" transform="matrix(-1 0 0 1 20 20.125)" fill="#DBDBDB"/>
<rect width="0.99999" height="1" transform="matrix(-1 0 0 1 19 20.125)" fill="#DBDBDB"/>
<rect width="0.99999" height="1" transform="matrix(-1 0 0 1 18 20.125)" fill="#DBDBDB"/>
<rect width="0.99999" height="0.999992" transform="matrix(-1 0 0 1 18 19.125)" fill="#DBDBDB"/>
<rect width="0.99999" height="0.999992" transform="matrix(-1 0 0 1 19 19.125)" fill="white"/>
<rect width="0.999992" height="0.999992" transform="matrix(-1 0 0 1 20 19.125)" fill="white"/>
<rect width="0.99999" height="1" transform="matrix(-1 0 0 1 19 18.125)" fill="white"/>
<rect width="0.999992" height="1" transform="matrix(-1 0 0 1 20 18.125)" fill="white"/>
<rect width="0.999985" height="1" transform="matrix(-1 0 0 1 21 18.125)" fill="white"/>
<rect width="0.999985" height="0.999996" transform="matrix(-1 0 0 1 21 17.125)" fill="white"/>
<rect width="0.99999" height="1" transform="matrix(-1 0 0 1 22 18.125)" fill="white"/>
<rect width="0.99999" height="0.999996" transform="matrix(-1 0 0 1 22 17.125)" fill="white"/>
<rect width="0.999985" height="1.00001" transform="matrix(-1 0 0 1 21 16.125)" fill="white"/>
<rect width="0.99999" height="1.00001" transform="matrix(-1 0 0 1 22 16.125)" fill="white"/>
<rect width="0.99999" height="0.999997" transform="matrix(-1 0 0 1 22 15.125)" fill="white"/>
<rect width="0.999985" height="0.999997" transform="matrix(-1 0 0 1 21 15.125)" fill="white"/>
<rect width="0.99999" height="0.999996" transform="matrix(-1 0 0 1 18 17.125)" fill="#DBDBDB"/>
<rect width="0.999989" height="0.999996" transform="matrix(-1 0 0 1 17 17.125)" fill="#DBDBDB"/>
<rect width="0.99999" height="1.00001" transform="matrix(-1 0 0 1 19 16.125)" fill="#DBDBDB"/>
<rect width="0.999992" height="1.00001" transform="matrix(-1 0 0 1 20 16.125)" fill="#DBDBDB"/>
<rect x="11" y="5.125" width="0.999988" height="0.999999" fill="white"/>
<rect x="11" y="6.125" width="0.999988" height="1" fill="white"/>
<rect x="11" y="7.125" width="0.999988" height="1" fill="white"/>
<rect x="11" y="8.125" width="0.999988" height="1" fill="white"/>
<rect x="11" y="9.125" width="0.999988" height="1" fill="white"/>
<rect x="11" y="10.125" width="0.999988" height="0.999999" fill="white"/>
<rect x="10" y="10.125" width="0.99999" height="0.999999" fill="#DBDBDB"/>
<rect x="8.99997" y="9.125" width="0.99999" height="1" fill="#DBDBDB"/>
<rect x="8" y="9.125" width="0.99999" height="1" fill="#DBDBDB"/>
<rect x="7" y="9.125" width="0.99999" height="1" fill="#DBDBDB"/>
<rect x="6" y="10.125" width="0.99999" height="0.999999" fill="#DBDBDB"/>
<rect x="5" y="10.125" width="0.99999" height="0.999999" fill="white"/>
<rect x="5" y="11.125" width="0.99999" height="0.999998" fill="white"/>
<rect x="5" y="12.125" width="0.99999" height="0.999997" fill="white"/>
<rect x="5" y="13.125" width="0.99999" height="0.999999" fill="white"/>
<rect x="6" y="14.125" width="0.99999" height="1" fill="white"/>
<rect x="7" y="15.125" width="0.99999" height="0.999997" fill="white"/>
<rect x="8" y="15.125" width="0.99999" height="0.999997" fill="white"/>
<rect x="7" y="16.125" width="0.99999" height="1.00001" fill="white"/>
<rect x="8" y="16.125" width="0.99999" height="1.00001" fill="white"/>
<rect x="5" y="15.125" width="0.99999" height="0.999997" fill="white"/>
<rect x="6" y="15.125" width="0.99999" height="0.999997" fill="white"/>
<rect x="8.99997" y="15.125" width="0.99999" height="0.999997" fill="white"/>
<rect x="10" y="15.125" width="0.99999" height="0.999997" fill="white"/>
<rect x="8.99997" y="16.125" width="0.99999" height="1.00001" fill="white"/>
<rect x="10" y="16.125" width="0.99999" height="1.00001" fill="white"/>
<rect x="8.99997" y="17.125" width="0.99999" height="0.999996" fill="white"/>
<rect x="10" y="17.125" width="0.99999" height="0.999996" fill="white"/>
<rect x="11" y="15.125" width="0.999988" height="0.999997" fill="white"/>
<rect x="11" y="16.125" width="0.999988" height="1.00001" fill="white"/>
<rect x="11" y="17.125" width="0.999988" height="0.999996" fill="white"/>
<rect x="11" y="18.125" width="0.999988" height="1" fill="#DBDBDB"/>
<rect x="10" y="18.125" width="0.99999" height="1" fill="#DBDBDB"/>
<rect x="8.99997" y="18.125" width="0.99999" height="1" fill="#DBDBDB"/>
<rect x="10" y="14.125" width="0.99999" height="1" fill="white"/>
<rect x="11" y="14.125" width="0.999988" height="1" fill="white"/>
<rect x="11" y="13.125" width="0.999988" height="0.999999" fill="white"/>
<rect x="11" y="12.125" width="0.999988" height="0.999997" fill="white"/>
<rect x="11" y="11.125" width="0.999988" height="0.999998" fill="white"/>
<rect x="5" y="9.125" width="0.99999" height="1" fill="white"/>
<rect x="6" y="9.125" width="0.99999" height="1" fill="white"/>
<rect x="6" y="8.125" width="0.99999" height="1" fill="white"/>
<rect x="7" y="8.125" width="0.99999" height="1" fill="white"/>
<rect x="8" y="8.125" width="0.99999" height="1" fill="white"/>
<rect x="8.99997" y="8.125" width="0.99999" height="1" fill="white"/>
<rect x="10" y="8.125" width="0.99999" height="1" fill="white"/>
<rect x="6" y="7.125" width="0.99999" height="1" fill="white"/>
<rect x="7" y="7.125" width="0.99999" height="1" fill="white"/>
<rect x="8" y="7.125" width="0.99999" height="1" fill="white"/>
<rect x="8.99997" y="7.125" width="0.99999" height="1" fill="white"/>
<rect x="10" y="7.125" width="0.99999" height="1" fill="white"/>
<rect x="6" y="6.125" width="0.99999" height="1" fill="white"/>
<rect x="7" y="6.125" width="0.99999" height="1" fill="white"/>
<rect x="8" y="6.125" width="0.99999" height="1" fill="white"/>
<rect x="8.99997" y="6.125" width="0.99999" height="1" fill="white"/>
<rect x="10" y="6.125" width="0.99999" height="1" fill="white"/>
<rect x="5" y="5.125" width="0.99999" height="0.999999" fill="white"/>
<rect x="6" y="5.125" width="0.99999" height="0.999999" fill="white"/>
<rect x="7" y="5.125" width="0.99999" height="0.999999" fill="white"/>
<rect x="8" y="5.125" width="0.99999" height="0.999999" fill="white"/>
<rect x="8.99997" y="5.125" width="0.99999" height="0.999999" fill="white"/>
<rect x="10" y="9.125" width="0.99999" height="1" fill="white"/>
<rect x="10" y="5.125" width="0.99999" height="0.999999" fill="white"/>
<rect x="8.99997" y="4.125" width="0.99999" height="1" fill="white"/>
<rect x="8" y="4.125" width="0.99999" height="1" fill="white"/>
<rect x="8" y="3.125" width="0.99999" height="1" fill="white"/>
<rect x="7" y="3.125" width="0.99999" height="1" fill="white"/>
<rect x="6" y="3.125" width="0.99999" height="1" fill="white"/>
<rect x="7" y="4.125" width="0.99999" height="1" fill="white"/>
<rect x="6" y="4.125" width="0.99999" height="1" fill="white"/>
<rect x="5" y="4.125" width="0.99999" height="1" fill="white"/>
<rect x="4" y="5.125" width="0.99999" height="0.999999" fill="white"/>
<rect x="5" y="6.125" width="0.99999" height="1" fill="white"/>
<rect x="4" y="6.125" width="0.99999" height="1" fill="white"/>
<rect x="5" y="7.125" width="0.99999" height="1" fill="white"/>
<rect x="4" y="7.125" width="0.99999" height="1" fill="white"/>
<rect x="5" y="8.125" width="0.99999" height="1" fill="white"/>
<rect x="4" y="8.125" width="0.99999" height="1" fill="white"/>
<rect x="3" y="6.125" width="0.99999" height="1" fill="white"/>
<rect x="3" y="7.125" width="0.99999" height="1" fill="white"/>
<rect x="1.99997" y="8.125" width="0.99999" height="1" fill="white"/>
<rect x="3" y="8.125" width="0.99999" height="1" fill="white"/>
<rect x="4" y="9.125" width="0.99999" height="1" fill="white"/>
<rect x="3" y="9.125" width="0.99999" height="1" fill="white"/>
<rect x="4" y="10.125" width="0.99999" height="0.999999" fill="white"/>
<rect x="3" y="10.125" width="0.99999" height="0.999999" fill="white"/>
<rect x="4" y="11.125" width="0.99999" height="0.999998" fill="white"/>
<rect x="3" y="11.125" width="0.99999" height="0.999998" fill="white"/>
<rect x="4" y="12.125" width="0.99999" height="0.999997" fill="white"/>
<rect x="3" y="12.125" width="0.99999" height="0.999997" fill="white"/>
<rect x="4" y="13.125" width="0.99999" height="0.999999" fill="white"/>
<rect x="3" y="13.125" width="0.99999" height="0.999999" fill="white"/>
<rect x="1.99997" y="9.125" width="0.99999" height="1" fill="white"/>
<rect x="1.99997" y="10.125" width="0.99999" height="0.999999" fill="white"/>
<rect x="1.99997" y="11.125" width="0.99999" height="0.999998" fill="white"/>
<rect x="1.99997" y="12.125" width="0.99999" height="0.999997" fill="white"/>
<rect x="1.99997" y="13.125" width="0.99999" height="0.999999" fill="white"/>
<rect x="1.00003" y="10.125" width="0.99999" height="0.999999" fill="white"/>
<rect x="1.00003" y="11.125" width="0.99999" height="0.999998" fill="white"/>
<rect x="1.00003" y="12.125" width="0.99999" height="0.999997" fill="white"/>
<rect x="1.00003" y="13.125" width="0.99999" height="0.999999" fill="white"/>
<rect x="5" y="14.125" width="0.99999" height="1" fill="white"/>
<rect x="4" y="14.125" width="0.99999" height="1" fill="white"/>
<rect x="3" y="14.125" width="0.99999" height="1" fill="white"/>
<rect x="1.99997" y="14.125" width="0.99999" height="1" fill="white"/>
<rect x="1.00003" y="14.125" width="0.99999" height="1" fill="white"/>
<rect x="1.99997" y="15.125" width="0.99999" height="0.999997" fill="white"/>
<rect x="1.00003" y="15.125" width="0.99999" height="0.999997" fill="white"/>
<rect x="1.99997" y="16.125" width="0.99999" height="1.00001" fill="white"/>
<rect x="1.00003" y="16.125" width="0.99999" height="1.00001" fill="white"/>
<rect x="1.99997" y="17.125" width="0.99999" height="0.999996" fill="white"/>
<rect x="1.00003" y="17.125" width="0.99999" height="0.999996" fill="white"/>
<rect y="14.125" width="0.99999" height="1" fill="white"/>
<rect y="15.125" width="0.99999" height="0.999997" fill="white"/>
<rect y="16.125" width="0.99999" height="1.00001" fill="white"/>
<rect y="17.125" width="0.99999" height="0.999996" fill="#DBDBDB"/>
<rect x="1.00003" y="18.125" width="0.99999" height="1" fill="#DBDBDB"/>
<rect x="1.99997" y="18.125" width="0.99999" height="1" fill="#DBDBDB"/>
<rect x="3" y="19.125" width="0.99999" height="0.999992" fill="#DBDBDB"/>
<rect x="4" y="19.125" width="0.99999" height="0.999992" fill="#DBDBDB"/>
<rect x="5" y="20.125" width="0.99999" height="1" fill="#DBDBDB"/>
<rect x="6" y="20.125" width="0.99999" height="1" fill="#DBDBDB"/>
<rect x="7" y="20.125" width="0.99999" height="1" fill="#DBDBDB"/>
<rect x="7" y="19.125" width="0.99999" height="0.999992" fill="#DBDBDB"/>
<rect x="6" y="19.125" width="0.99999" height="0.999992" fill="white"/>
<rect x="5" y="19.125" width="0.99999" height="0.999992" fill="white"/>
<rect x="6" y="18.125" width="0.99999" height="1" fill="white"/>
<rect x="5" y="18.125" width="0.99999" height="1" fill="white"/>
<rect x="4" y="18.125" width="0.99999" height="1" fill="white"/>
<rect x="4" y="17.125" width="0.99999" height="0.999996" fill="white"/>
<rect x="3" y="18.125" width="0.99999" height="1" fill="white"/>
<rect x="3" y="17.125" width="0.99999" height="0.999996" fill="white"/>
<rect x="4" y="16.125" width="0.99999" height="1.00001" fill="white"/>
<rect x="3" y="16.125" width="0.99999" height="1.00001" fill="white"/>
<rect x="3" y="15.125" width="0.99999" height="0.999997" fill="white"/>
<rect x="4" y="15.125" width="0.99999" height="0.999997" fill="white"/>
<rect x="7" y="17.125" width="0.99999" height="0.999996" fill="#DBDBDB"/>
<rect x="8" y="17.125" width="0.99999" height="0.999996" fill="#DBDBDB"/>
<rect x="6" y="16.125" width="0.99999" height="1.00001" fill="#DBDBDB"/>
<rect x="5" y="16.125" width="0.99999" height="1.00001" fill="#DBDBDB"/>
</g>
<defs>
<filter id="filter0_d_442_513129" x="0" y="3.125" width="26" height="19" filterUnits="userSpaceOnUse" color-interpolation-filters="sRGB">
<feFlood flood-opacity="0" result="BackgroundImageFix"/>
<feColorMatrix in="SourceAlpha" type="matrix" values="0 0 0 0 0 0 0 0 0 0 0 0 0 0 0 0 0 0 127 0" result="hardAlpha"/>
<feOffset dx="1" dy="1"/>
<feComposite in2="hardAlpha" operator="out"/>
<feColorMatrix type="matrix" values="0 0 0 0 0 0 0 0 0 0 0 0 0 0 0 0 0 0 0.2 0"/>
<feBlend mode="normal" in2="BackgroundImageFix" result="effect1_dropShadow_442_513129"/>
<feBlend mode="normal" in="SourceGraphic" in2="effect1_dropShadow_442_513129" result="shape"/>
</filter>
</defs>
</svg>
