<svg width="26" height="26" viewBox="0 0 26 26" fill="none" xmlns="http://www.w3.org/2000/svg">
<g filter="url(#filter0_d_453_137776)">
<rect x="17.5" y="7.5" width="2.5" height="2.50003" fill="#777777" fill-opacity="0.8"/>
<rect x="15" y="7.5" width="2.5" height="2.50003" fill="#777777"/>
<rect x="15" y="5" width="2.5" height="2.50003" fill="#777777" fill-opacity="0.8"/>
<rect x="17.5" y="5" width="2.5" height="2.50003" fill="#777777" fill-opacity="0.2"/>
<rect x="22.5" y="2.5" width="2.5" height="2.50003" fill="#777777"/>
<rect x="5" y="15" width="2.5" height="2.50003" fill="#777777"/>
<rect x="7.5" y="12.5" width="2.5" height="2.50003" fill="#777777"/>
<rect x="10" y="15" width="2.5" height="2.50003" fill="#777777"/>
<rect x="12.5" y="17.5" width="2.5" height="2.50003" fill="#777777"/>
<rect x="10" y="20" width="2.5" height="2.50003" fill="#777777"/>
<rect y="20" width="2.5" height="2.50002" fill="#777777"/>
<rect x="2.5" y="22.5" width="2.5" height="2.50002" fill="#777777"/>
<rect x="7.5" y="22.5" width="2.5" height="2.50002" fill="#777777"/>
<rect x="12.5" y="22.5" width="2.5" height="2.50002" fill="#777777"/>
<rect x="17.5" y="22.5" width="2.5" height="2.50002" fill="#777777"/>
<rect x="15" y="22.5" width="2.5" height="2.50002" fill="#777777"/>
<rect x="10" y="22.5" width="2.5" height="2.50002" fill="#777777"/>
<rect x="5" y="22.5" width="2.5" height="2.50002" fill="#777777"/>
<rect x="2.5" width="2.5" height="2.50003" fill="#777777"/>
<rect x="7.5" width="2.5" height="2.50003" fill="#777777"/>
<rect x="12.5" width="2.5" height="2.50003" fill="#777777"/>
<rect x="17.5" width="2.5" height="2.50003" fill="#777777"/>
<rect x="20" y="22.5" width="2.5" height="2.50002" fill="#777777"/>
<rect x="20" width="2.5" height="2.50003" fill="#777777"/>
<rect x="15" width="2.5" height="2.50003" fill="#777777"/>
<rect x="10" width="2.5" height="2.50003" fill="#777777"/>
<rect x="5" width="2.5" height="2.50003" fill="#777777"/>
<rect y="17.5" width="2.5" height="2.50003" fill="#777777"/>
<rect x="2.5" y="17.5" width="2.5" height="2.50003" fill="#777777"/>
<rect x="2.5" y="20" width="2.5" height="2.50002" fill="#777777" fill-opacity="0.6"/>
<rect x="2.5" y="15" width="2.5" height="2.50003" fill="#777777" fill-opacity="0.2"/>
<rect x="2.5" y="12.5" width="2.5" height="2.50003" fill="#777777" fill-opacity="0.2"/>
<rect x="2.5" y="10" width="2.5" height="2.50003" fill="#777777" fill-opacity="0.2"/>
<rect x="2.5" y="5" width="2.5" height="2.50003" fill="#777777" fill-opacity="0.2"/>
<rect x="7.5" y="5" width="2.5" height="2.50003" fill="#777777" fill-opacity="0.2"/>
<rect x="10" y="10" width="2.5" height="2.50003" fill="#777777" fill-opacity="0.2"/>
<rect x="10" y="5" width="2.5" height="2.50003" fill="#777777" fill-opacity="0.2"/>
<rect x="10" y="7.5" width="2.5" height="2.50003" fill="#777777" fill-opacity="0.2"/>
<rect x="7.5" y="10" width="2.5" height="2.50003" fill="#777777" fill-opacity="0.2"/>
<rect x="7.5" y="7.5" width="2.5" height="2.50003" fill="#777777" fill-opacity="0.2"/>
<rect x="5" y="7.5" width="2.5" height="2.50003" fill="#777777" fill-opacity="0.2"/>
<rect x="5" y="12.5" width="2.5" height="2.50003" fill="#777777" fill-opacity="0.2"/>
<rect x="5" y="2.5" width="2.5" height="2.50003" fill="#777777" fill-opacity="0.2"/>
<rect x="5" y="5" width="2.5" height="2.50003" fill="#777777" fill-opacity="0.2"/>
<rect x="5" y="10" width="2.5" height="2.50003" fill="#777777" fill-opacity="0.2"/>
<rect x="12.5" y="10" width="2.5" height="2.50003" fill="#777777" fill-opacity="0.2"/>
<rect x="10" y="12.5" width="2.5" height="2.50003" fill="#777777" fill-opacity="0.2"/>
<rect x="12.5" y="7.5" width="2.5" height="2.50003" fill="#777777" fill-opacity="0.8"/>
<rect x="10" y="2.5" width="2.5" height="2.50003" fill="#777777" fill-opacity="0.2"/>
<rect x="7.5" y="2.5" width="2.5" height="2.50003" fill="#777777" fill-opacity="0.2"/>
<rect x="12.5" y="5" width="2.5" height="2.50003" fill="#777777" fill-opacity="0.2"/>
<rect x="15" y="2.5" width="2.5" height="2.50003" fill="#777777" fill-opacity="0.2"/>
<rect x="15" y="12.5" width="2.5" height="2.50003" fill="#777777" fill-opacity="0.2"/>
<rect x="12.5" y="12.5" width="2.5" height="2.50003" fill="#777777" fill-opacity="0.2"/>
<rect x="12.5" y="15" width="2.5" height="2.50003" fill="#777777" fill-opacity="0.2"/>
<rect x="17.5" y="15" width="2.5" height="2.50003" fill="#777777" fill-opacity="0.2"/>
<rect x="15" y="10" width="2.5" height="2.50003" fill="#777777" fill-opacity="0.8"/>
<rect x="17.5" y="10" width="2.5" height="2.50003" fill="#777777" fill-opacity="0.2"/>
<rect x="17.5" y="12.5" width="2.5" height="2.50003" fill="#777777" fill-opacity="0.2"/>
<rect x="17.5" y="2.5" width="2.5" height="2.50003" fill="#777777" fill-opacity="0.2"/>
<rect x="12.5" y="2.5" width="2.5" height="2.50003" fill="#777777" fill-opacity="0.2"/>
<rect x="2.5" y="2.5" width="2.5" height="2.50003" fill="#777777" fill-opacity="0.2"/>
<rect x="2.5" y="7.5" width="2.5" height="2.50003" fill="#777777" fill-opacity="0.2"/>
<rect x="5" y="17.5" width="2.5" height="2.50003" fill="#777777" fill-opacity="0.6"/>
<rect x="5" y="20" width="2.5" height="2.50002" fill="#777777" fill-opacity="0.6"/>
<rect x="7.5" y="20" width="2.5" height="2.50002" fill="#777777" fill-opacity="0.6"/>
<rect x="7.5" y="17.5" width="2.5" height="2.50003" fill="#777777" fill-opacity="0.6"/>
<rect x="7.5" y="15" width="2.5" height="2.50003" fill="#777777" fill-opacity="0.6"/>
<rect x="10" y="17.5" width="2.5" height="2.50003" fill="#777777" fill-opacity="0.6"/>
<rect x="12.5" y="20" width="2.5" height="2.50002" fill="#777777" fill-opacity="0.6"/>
<rect x="15" y="20" width="2.5" height="2.50002" fill="#777777" fill-opacity="0.6"/>
<rect x="15" y="17.5" width="2.5" height="2.50003" fill="#777777" fill-opacity="0.6"/>
<rect x="17.5" y="20" width="2.5" height="2.50002" fill="#777777" fill-opacity="0.6"/>
<rect y="12.5" width="2.5" height="2.50003" fill="#777777"/>
<rect y="7.5" width="2.5" height="2.50003" fill="#777777"/>
<rect y="2.5" width="2.5" height="2.50003" fill="#777777"/>
<rect x="22.5" y="20" width="2.5" height="2.50002" fill="#777777"/>
<rect x="15" y="15" width="2.5" height="2.50003" fill="#777777"/>
<rect x="17.5" y="17.5" width="2.5" height="2.50003" fill="#777777"/>
<rect y="5" width="2.5" height="2.50003" fill="#777777"/>
<rect y="10" width="2.5" height="2.50003" fill="#777777"/>
<rect y="15" width="2.5" height="2.50003" fill="#777777"/>
<rect x="22.5" y="17.5" width="2.5" height="2.50003" fill="#777777"/>
<rect x="22.5" y="12.5" width="2.5" height="2.50003" fill="#777777"/>
<rect x="22.5" y="7.5" width="2.5" height="2.50003" fill="#777777"/>
<rect x="22.5" y="5" width="2.5" height="2.50003" fill="#777777"/>
<rect x="22.5" y="10" width="2.5" height="2.50003" fill="#777777"/>
<rect x="22.5" y="15" width="2.5" height="2.50003" fill="#777777"/>
<rect x="20" y="2.5" width="2.5" height="2.50003" fill="#777777" fill-opacity="0.2"/>
<rect x="20" y="20" width="2.5" height="2.50002" fill="#777777"/>
<rect x="20" y="17.5" width="2.5" height="2.50003" fill="#777777" fill-opacity="0.2"/>
<rect x="20" y="12.5" width="2.5" height="2.50003" fill="#777777" fill-opacity="0.2"/>
<rect x="20" y="7.5" width="2.5" height="2.50003" fill="#777777" fill-opacity="0.2"/>
<rect x="20" y="5" width="2.5" height="2.50003" fill="#777777" fill-opacity="0.2"/>
<rect x="20" y="10" width="2.5" height="2.50003" fill="#777777" fill-opacity="0.2"/>
<rect x="20" y="15" width="2.5" height="2.50003" fill="#777777" fill-opacity="0.2"/>
</g>
<defs>
<filter id="filter0_d_453_137776" x="0" y="0" width="26" height="26" filterUnits="userSpaceOnUse" color-interpolation-filters="sRGB">
<feFlood flood-opacity="0" result="BackgroundImageFix"/>
<feColorMatrix in="SourceAlpha" type="matrix" values="0 0 0 0 0 0 0 0 0 0 0 0 0 0 0 0 0 0 127 0" result="hardAlpha"/>
<feOffset dx="1" dy="1"/>
<feComposite in2="hardAlpha" operator="out"/>
<feColorMatrix type="matrix" values="0 0 0 0 0 0 0 0 0 0 0 0 0 0 0 0 0 0 0.2 0"/>
<feBlend mode="normal" in2="BackgroundImageFix" result="effect1_dropShadow_453_137776"/>
<feBlend mode="normal" in="SourceGraphic" in2="effect1_dropShadow_453_137776" result="shape"/>
</filter>
</defs>
</svg>
