<?xml version="1.0" encoding="UTF-8"?>
<svg width="318px" height="447px" viewBox="0 0 318 447" version="1.1" xmlns="http://www.w3.org/2000/svg" xmlns:xlink="http://www.w3.org/1999/xlink">
    <title>Group 6</title>
    <defs>
        <polygon id="path-1" points="7.17387168 30.7476249 17.8632982 45.6537084 21.1320381 37.9461981 0.347819389 0.134450601 0.400287124 39.6216678 0.512218291 39.3925587"></polygon>
        <linearGradient x1="51.6582334%" y1="96.0236124%" x2="39.1397477%" y2="10.7276367%" id="linearGradient-3">
            <stop stop-color="#FFFFFF" offset="0%"></stop>
            <stop stop-color="#DDEFF6" offset="100%"></stop>
        </linearGradient>
        <polygon id="path-4" points="16.0881398 0.134450601 0.540201083 28.4163086 6.13675946 27.2865033 10.1977621 19.813349 5.59459286 64.1415892 16.1406076 39.6216678"></polygon>
        <linearGradient x1="48.6451803%" y1="73.814403%" x2="53.0921495%" y2="5.29172824%" id="linearGradient-6">
            <stop stop-color="#A3DBE8" offset="0%"></stop>
            <stop stop-color="#DDEFF6" offset="100%"></stop>
        </linearGradient>
        <polygon id="path-7" points="13.5386351 63.9089822 7.57655155 23.3531722 27.068315 49.7566852 0.00895527069 0.534954309 0.0789122504 51.939343 0.225821908 51.6420258"></polygon>
        <linearGradient x1="51.9591983%" y1="90.6692466%" x2="38.0190116%" y2="9.44632934%" id="linearGradient-9">
            <stop stop-color="#FFFFFF" offset="0%"></stop>
            <stop stop-color="#DDEFF6" offset="100%"></stop>
        </linearGradient>
        <polygon id="path-10" points="20.8978988 0.534954309 0.657595609 37.3533127 6.74560177 32.4650688 12.9612794 43.925771 17.5277213 58.9088071 20.9678557 51.939343"></polygon>
        <linearGradient x1="49.3458233%" y1="80.0135417%" x2="59.9255218%" y2="8.09724631%" id="linearGradient-12">
            <stop stop-color="#A3DBE8" offset="0%"></stop>
            <stop stop-color="#DDEFF6" offset="100%"></stop>
        </linearGradient>
        <polygon id="path-13" points="0.814782228 76.8475256 1.02989994 76.4067966 18.8811722 94.6743129 27.0346582 72.1656547 40.8004429 73.6137642 0.708097834 0.685361816"></polygon>
        <linearGradient x1="52.9012995%" y1="98.3227141%" x2="38.222939%" y2="1.34693549%" id="linearGradient-15">
            <stop stop-color="#FFFFFF" offset="0%"></stop>
            <stop stop-color="#DDEFF6" offset="100%"></stop>
        </linearGradient>
        <polygon id="path-16" points="30.4398142 0.685361816 0.451005934 55.2360656 3.9191232 64.9898175 15.6614022 58.1392803 25.4483837 87.1731758 30.5464986 76.8475256"></polygon>
        <linearGradient x1="48.8137204%" y1="89.5508643%" x2="55.6748138%" y2="8.64220901%" id="linearGradient-18">
            <stop stop-color="#A3DBE8" offset="0%"></stop>
            <stop stop-color="#DDEFF6" offset="100%"></stop>
        </linearGradient>
        <polygon id="path-19" points="9.74304176 40.9193698 24.005521 60.8063901 28.3655897 50.5209652 0.63639193 0.0784850171 0.70634891 52.7578396 0.85850534 52.4552757"></polygon>
        <linearGradient x1="51.6585166%" y1="96.024626%" x2="39.1398375%" y2="10.7293828%" id="linearGradient-21">
            <stop stop-color="#FFFFFF" offset="0%"></stop>
            <stop stop-color="#DDEFF6" offset="100%"></stop>
        </linearGradient>
        <polygon id="path-22" points="20.7842187 0.0784850171 0.0402252633 37.8132799 7.50988177 36.303958 12.9280498 26.3333395 6.78757595 85.4732212 20.8541756 52.7578396"></polygon>
        <linearGradient x1="48.6454301%" y1="73.813315%" x2="53.0923675%" y2="5.29364245%" id="linearGradient-24">
            <stop stop-color="#A3DBE8" offset="0%"></stop>
            <stop stop-color="#DDEFF6" offset="100%"></stop>
        </linearGradient>
        <polygon id="path-25" points="13.7955164 63.6763752 7.8334328 23.1170673 27.3234473 49.5205804 0.264087598 0.298849503 0.334044578 51.7032382 0.480954235 51.4041721"></polygon>
        <linearGradient x1="51.9594176%" y1="90.6682157%" x2="38.0202944%" y2="9.4470128%" id="linearGradient-27">
            <stop stop-color="#FFFFFF" offset="0%"></stop>
            <stop stop-color="#DDEFF6" offset="100%"></stop>
        </linearGradient>
        <polygon id="path-28" points="20.3415242 0.298849503 0.10296996 37.1172079 6.19097612 32.228964 12.4049048 43.6914151 16.9730956 58.6709533 20.4114812 51.7032382"></polygon>
        <linearGradient x1="49.345824%" y1="80.0146524%" x2="59.9249233%" y2="8.09839106%" id="linearGradient-30">
            <stop stop-color="#A3DBE8" offset="0%"></stop>
            <stop stop-color="#DDEFF6" offset="100%"></stop>
        </linearGradient>
        <polygon id="path-31" points="0.63765787 0.00419741878 66.9953509 0.00419741878 66.9953509 159.152129 0.63765787 159.152129"></polygon>
        <polygon id="path-33" points="9.27454658 35.3527597 30.3788184 72.2620622 18.9863243 33.3799729 0.636608515 0.00524677348 0.706565495 51.4078865 0.853475152 51.1105694"></polygon>
        <linearGradient x1="52.1214804%" y1="100.38655%" x2="40.5330893%" y2="9.95456928%" id="linearGradient-35">
            <stop stop-color="#FFFFFF" offset="0%"></stop>
            <stop stop-color="#DDEFF6" offset="100%"></stop>
        </linearGradient>
        <polygon id="path-36" points="21.6237024 0.00524677348 1.38165035 36.8236052 12.599252 27.6435005 0.36202737 70.7020215 17.1954256 35.3527597 21.6936594 51.4078865"></polygon>
        <linearGradient x1="47.593276%" y1="91.1222074%" x2="55.5294044%" y2="4.24622591%" id="linearGradient-38">
            <stop stop-color="#A3DBE8" offset="0%"></stop>
            <stop stop-color="#DDEFF6" offset="100%"></stop>
        </linearGradient>
        <polygon id="path-39" points="0 0.412110594 142.990345 0.412110594 142.990345 93.3613778 0 93.3613778"></polygon>
        <polygon id="path-41" points="0.0527385256 0.0630841961 98.7248111 0.0630841961 98.7248111 28.6043466 0.0527385256 28.6043466"></polygon>
        <rect id="path-43" x="0" y="0" width="78" height="26" rx="13"></rect>
        <filter x="-28.2%" y="-76.9%" width="156.4%" height="269.2%" filterUnits="objectBoundingBox" id="filter-44">
            <feOffset dx="0" dy="2" in="SourceAlpha" result="shadowOffsetOuter1"></feOffset>
            <feGaussianBlur stdDeviation="7" in="shadowOffsetOuter1" result="shadowBlurOuter1"></feGaussianBlur>
            <feColorMatrix values="0 0 0 0 0   0 0 0 0 0   0 0 0 0 0  0 0 0 0.128032124 0" type="matrix" in="shadowBlurOuter1"></feColorMatrix>
        </filter>
        <polygon id="path-45" points="0 0.000588461538 40.5991718 0.000588461538 40.5991718 33.8483254 0 33.8483254"></polygon>
        <polygon id="path-47" points="0 0.000358333333 49.4427055 0.000358333333 49.4427055 41.2223643 0 41.2223643"></polygon>
    </defs>
    <g id="Page-1" stroke="none" stroke-width="1" fill="none" fill-rule="evenodd">
        <g id="main-copy-3" transform="translate(-24.000000, -315.000000)">
            <g id="Group-6" transform="translate(24.000000, 315.000000)">
                <g id="Group-80" transform="translate(13.174305, 149.000000)">
                    <g id="Group-7" transform="translate(186.295653, 61.366263)">
                        <polygon id="Fill-1" fill="#A4DCE9" points="51.0669794 0.133751031 51.2313783 122.387071 0.0893283489 92.8617276"></polygon>
                        <polygon id="Fill-3" fill="#C5DEE2" points="102.042007 92.861028 51.2305039 122.38812 51.0678539 0.133051461"></polygon>
                    </g>
                    <g id="Group-10" transform="translate(237.014464, 61.366263)">
                        <mask id="mask-2" fill="white">
                            <use xlink:href="#path-1"></use>
                        </mask>
                        <g id="Clip-9"></g>
                        <polygon id="Fill-8" fill="url(#linearGradient-3)" mask="url(#mask-2)" points="7.17387168 30.7476249 17.8632982 45.6537084 21.1320381 37.9461981 0.347819389 0.134450601 0.400287124 39.6216678 0.512218291 39.3925587"></polygon>
                    </g>
                    <g id="Group-13" transform="translate(221.274143, 61.366263)">
                        <mask id="mask-5" fill="white">
                            <use xlink:href="#path-4"></use>
                        </mask>
                        <g id="Clip-12"></g>
                        <polygon id="Fill-11" fill="url(#linearGradient-6)" mask="url(#mask-5)" points="16.0881398 0.134450601 0.540201083 28.4163086 6.13675946 27.2865033 10.1977621 19.813349 5.59459286 64.1415892 16.1406076 39.6216678"></polygon>
                    </g>
                    <polygon id="Fill-14" fill="#61A1C4" points="101.348775 39.1653734 101.565642 198.312255 34.9910821 159.876142"></polygon>
                    <polygon id="Fill-15" fill="#C5DEE2" points="167.705419 159.875442 101.566341 198.313305 101.349475 39.1646738"></polygon>
                    <g id="Group-18" transform="translate(101.339470, 38.630244)">
                        <mask id="mask-8" fill="white">
                            <use xlink:href="#path-7"></use>
                        </mask>
                        <g id="Clip-17"></g>
                        <polygon id="Fill-16" fill="url(#linearGradient-9)" mask="url(#mask-8)" points="13.5386351 63.9089822 7.57655155 23.3531722 27.068315 49.7566852 0.00895527069 0.534954309 0.0789122504 51.939343 0.225821908 51.6420258"></polygon>
                    </g>
                    <g id="Group-21" transform="translate(80.450527, 38.630244)">
                        <mask id="mask-11" fill="white">
                            <use xlink:href="#path-10"></use>
                        </mask>
                        <g id="Clip-20"></g>
                        <polygon id="Fill-19" fill="url(#linearGradient-12)" mask="url(#mask-11)" points="20.8978988 0.534954309 0.657595609 37.3533127 6.74560177 32.4650688 12.9612794 43.925771 17.5277213 58.9088071 20.9678557 51.939343"></polygon>
                    </g>
                    <polygon id="Fill-22" fill="#61A1C4" points="173.01288 0.839616956 74.691843 179.688133 173.334682 236.638362"></polygon>
                    <polygon id="Fill-23" fill="#C5DEE2" points="173.333983 236.639061 271.331469 179.688833 173.01218 0.840316526"></polygon>
                    <g id="Group-28" transform="translate(173.143525, 170.932944)"></g>
                    <g id="Group-31" transform="translate(172.304258, 0.153905)">
                        <mask id="mask-14" fill="white">
                            <use xlink:href="#path-13"></use>
                        </mask>
                        <g id="Clip-30"></g>
                        <polygon id="Fill-29" fill="url(#linearGradient-15)" mask="url(#mask-14)" points="0.814782228 76.8475256 1.02989994 76.4067966 18.8811722 94.6743129 27.0346582 72.1656547 40.8004429 73.6137642 0.708097834 0.685361816"></polygon>
                    </g>
                    <g id="Group-34" transform="translate(142.572541, 0.153905)">
                        <mask id="mask-17" fill="white">
                            <use xlink:href="#path-16"></use>
                        </mask>
                        <g id="Clip-33"></g>
                        <polygon id="Fill-32" fill="url(#linearGradient-18)" mask="url(#mask-17)" points="30.4398142 0.685361816 0.451005934 55.2360656 3.9191232 64.9898175 15.6614022 58.1392803 25.4483837 87.1731758 30.5464986 76.8475256"></polygon>
                    </g>
                    <polygon id="Fill-35" fill="#61A1C4" points="0 192.144323 68.2255444 231.538848 68.0051799 68.4411451"></polygon>
                    <g id="Group-41" transform="translate(68.000000, 68.361961)" fill="#C5DEE2">
                        <polygon id="Fill-39" points="68.0087859 123.783062 0.227468247 163.175838 0.00535483608 0.0798841567"></polygon>
                    </g>
                    <g id="Group-44" transform="translate(67.368788, 68.361961)">
                        <mask id="mask-20" fill="white">
                            <use xlink:href="#path-19"></use>
                        </mask>
                        <g id="Clip-43"></g>
                        <polygon id="Fill-42" fill="url(#linearGradient-21)" mask="url(#mask-20)" points="9.74304176 40.9193698 24.005521 60.8063901 28.3655897 50.5209652 0.63639193 0.0784850171 0.70634891 52.7578396 0.85850534 52.4552757"></polygon>
                    </g>
                    <g id="Group-47" transform="translate(47.220961, 68.361961)">
                        <mask id="mask-23" fill="white">
                            <use xlink:href="#path-22"></use>
                        </mask>
                        <g id="Clip-46"></g>
                        <polygon id="Fill-45" fill="url(#linearGradient-24)" mask="url(#mask-23)" points="20.7842187 0.0784850171 0.0402252633 37.8132799 7.50988177 36.303958 12.9280498 26.3333395 6.78757595 85.4732212 20.8541756 52.7578396"></polygon>
                    </g>
                    <g id="Group-56" transform="translate(143.411808, 108.587224)">
                        <polygon id="Fill-48" fill="#A4DCE9" points="66.723743 0.299549073 66.9406096 159.44818 0.367798821 121.010318"></polygon>
                        <polygon id="Fill-50" fill="#61A1C4" points="66.723743 0.299549073 66.9406096 159.44818 0.367798821 121.010318"></polygon>
                        <polygon id="Fill-52" fill="#C5DEE2" points="133.081261 121.009443 66.9404347 159.449054 66.7235681 0.298674611"></polygon>
                    </g>
                    <g id="Group-59" transform="translate(209.870939, 108.587224)">
                        <mask id="mask-26" fill="white">
                            <use xlink:href="#path-25"></use>
                        </mask>
                        <g id="Clip-58"></g>
                        <polygon id="Fill-57" fill="url(#linearGradient-27)" mask="url(#mask-26)" points="13.7955164 63.6763752 7.8334328 23.1170673 27.3234473 49.5205804 0.264087598 0.298849503 0.334044578 51.7032382 0.480954235 51.4041721"></polygon>
                    </g>
                    <g id="Group-62" transform="translate(189.793502, 108.587224)">
                        <mask id="mask-29" fill="white">
                            <use xlink:href="#path-28"></use>
                        </mask>
                        <g id="Clip-61"></g>
                        <polygon id="Fill-60" fill="url(#linearGradient-30)" mask="url(#mask-29)" points="20.3415242 0.298849503 0.10296996 37.1172079 6.19097612 32.228964 12.4049048 43.6914151 16.9730956 58.6709533 20.4114812 51.7032382"></polygon>
                    </g>
                    <polygon id="Fill-63" fill="#61A1C4" points="51.4566815 252.876776 118.029492 291.314638 117.814375 132.167756"></polygon>
                    <g id="Group-73" transform="translate(116.459927, 137.162509)">
                        <g id="Group-70" transform="translate(0.718014, 0.000000)">
                            <mask id="mask-32" fill="white">
                                <use xlink:href="#path-31"></use>
                            </mask>
                            <g id="Clip-69"></g>
                            <polygon id="Fill-68" fill="#C5DEE2" mask="url(#mask-32)" points="66.9953509 115.714966 0.852775582 154.152828 0.63765787 -4.99580258"></polygon>
                        </g>
                    </g>
                    <g id="Group-76" transform="translate(117.177941, 132.162509)">
                        <mask id="mask-34" fill="white">
                            <use xlink:href="#path-33"></use>
                        </mask>
                        <g id="Clip-75"></g>
                        <polygon id="Fill-74" fill="url(#linearGradient-35)" mask="url(#mask-34)" points="9.27454658 35.3527597 30.3788184 72.2620622 18.9863243 33.3799729 0.636608515 0.00524677348 0.706565495 51.4078865 0.853475152 51.1105694"></polygon>
                    </g>
                    <g id="Group-79" transform="translate(96.190847, 132.162509)">
                        <mask id="mask-37" fill="white">
                            <use xlink:href="#path-36"></use>
                        </mask>
                        <g id="Clip-78"></g>
                        <polygon id="Fill-77" fill="url(#linearGradient-38)" mask="url(#mask-37)" points="21.6237024 0.00524677348 1.38165035 36.8236052 12.599252 27.6435005 0.36202737 70.7020215 17.1954256 35.3527597 21.6936594 51.4078865"></polygon>
                    </g>
                </g>
                <g id="Group-37" transform="translate(82.825695, 34.000000)">
                    <path d="M42.8637852,10.5434461 L77.1508455,49.2622665 L46.3415061,67.2402162 C45.5508497,67.7011893 44.6493265,67.3773411 44.3342309,66.5195811 L27.0127302,19.8825271 C26.6947171,19.0218495 27.0798339,17.9540258 27.8675726,17.4930528 L39.4327451,10.738922 C40.226319,10.2750314 41.3612464,10.4617547 42.8637852,10.5434461" id="Fill-1" fill="#D1E9F5"></path>
                    <path d="M120.403832,14.3444316 L127.858175,20.8651583 C128.549635,21.4661738 128.893906,22.075942 128.631326,22.2334898 L128.147013,22.5135747 L116.613933,29.218107 C115.826194,29.673245 115.047208,29.3202213 114.872155,28.418698 L113.034098,18.618644 C112.859045,17.7171207 113.366699,16.6172039 114.157355,16.1533133 L117.719685,14.0847696 C118.507424,13.6267141 119.71529,13.7434161 120.403832,14.3444316" id="Fill-3" fill="#D1E9F5"></path>
                    <g id="Group-7" transform="translate(0.000000, 17.329086)">
                        <mask id="mask-40" fill="white">
                            <use xlink:href="#path-39"></use>
                        </mask>
                        <g id="Clip-6"></g>
                        <path d="M0.342520497,91.6960046 C-3.1585408,85.8696551 21.1388246,64.9274735 29.2642043,60.0960089 L118.348709,6.42765678 C126.418655,1.58160444 139.498037,-2.57590585 142.990345,3.28253672 L104.271525,44.1866029 L41.9059532,81.3386983 C33.8360069,86.1789155 3.86983975,97.627386 0.342520497,91.6960046" id="Fill-5" fill="#FFFFFF" mask="url(#mask-40)"></path>
                    </g>
                    <path d="M153.437221,28.1257759 L149.857385,30.1797319 C149.066729,30.6377874 147.68381,31.0141515 146.767699,31.0287392 L132.252882,31.186287 L123.287248,30.9207898 C122.374054,30.8916143 122.269022,30.4977449 123.068431,30.0367719 L134.569418,23.3497448 L135.546797,22.7837399 L153.25925,26.9208273 C154.146185,27.130891 154.227877,27.6706379 153.437221,28.1257759" id="Fill-8" fill="#FFFFFF"></path>
                    <path d="M132.085415,0.198101718 L128.514332,2.25205768 C127.712006,2.70719565 126.766719,3.75751404 126.387437,4.58609854 L115.548735,28.3845627 C115.548735,28.3845627 120.814915,24.4517038 127.714923,21.2715732 C133.293281,18.7070458 136.286688,18.4386311 136.286688,18.4386311 L133.760089,1.00918092 C133.625882,0.104740084 132.876071,-0.259953801 132.085415,0.198101718" id="Fill-10" fill="#FFFFFF"></path>
                    <g id="Group-14" transform="translate(68.678435, 59.941605)">
                        <mask id="mask-42" fill="white">
                            <use xlink:href="#path-41"></use>
                        </mask>
                        <g id="Clip-13"></g>
                        <path d="M98.1754362,21.2386699 L86.5402425,27.951955 C85.7495861,28.4100105 84.372502,28.6871778 83.4622261,28.582146 L0.80508647,18.4757491 C-0.105189466,18.3619646 -0.204386203,17.8980739 0.58918769,17.4341833 L26.3044829,2.48756914 L30.4736634,0.0630841961 L98.0178884,19.9432773 C98.8960713,20.2000217 98.9660925,20.783532 98.1754362,21.2386699" id="Fill-12" fill="#FFFFFF" mask="url(#mask-42)"></path>
                    </g>
                    <path d="M21.2981229,97.0587553 L21.2981229,93.3272074 C21.2981229,93.3272074 16.8838681,93.0879682 12.452108,90.9143927 C11.165468,92.1280939 9.92259122,93.3534654 8.73514793,94.5759193 C10.7336704,95.5912271 15.2733799,97.4263667 21.2981229,97.0587553" id="Fill-15" fill="#598AE2"></path>
                    <path d="M76.2017661,69.1281635 C76.3038804,70.3389472 75.9187637,71.4446991 75.3585938,71.6080819 C74.7925889,71.7685472 74.252842,70.9282925 74.1565628,69.7233439 C74.0632012,68.5154778 74.4395653,67.4068084 75.0026526,67.2434255 C75.5744926,67.0800427 76.1142396,67.9261325 76.2017661,69.1281635" id="Fill-17" fill="#598AE2"></path>
                    <path d="M83.5755847,64.6777311 C83.6747814,65.8826797 83.2925823,66.9884316 82.7265773,67.154732 C82.1605724,67.3151973 81.6266606,66.4749426 81.5274639,65.2641589 C81.4311847,64.0621278 81.8133839,62.9534584 82.3793888,62.787158 C82.9424761,62.6266927 83.4793055,63.4727825 83.5755847,64.6777311" id="Fill-19" fill="#598AE2"></path>
                    <path d="M90.946194,60.2246729 C91.0424732,61.4296215 90.660274,62.5382909 90.0971866,62.7045913 C89.5340993,62.8621391 88.9943523,62.0218844 88.9009907,60.8140182 C88.801794,59.6090696 89.1839931,58.5004002 89.744163,58.3370173 C90.3130854,58.1736345 90.8528324,59.0226418 90.946194,60.2246729" id="Fill-21" fill="#598AE2"></path>
                    <path d="M98.3255559,55.7713229 C98.4189176,56.9762715 98.0338008,58.0791058 97.4707135,58.2483238 C96.9076261,58.4058715 96.3649616,57.5597817 96.2686824,56.3606682 C96.1782384,55.1528021 96.55752,54.0470502 97.1176898,53.8807498 C97.6866123,53.7202845 98.2234417,54.5634568 98.3255559,55.7713229" id="Fill-23" fill="#598AE2"></path>
                    <path d="M105.693539,51.317973 C105.783984,52.520004 105.407619,53.631591 104.841615,53.7920563 C104.27561,53.9525216 103.741698,53.1122669 103.645419,51.9073183 C103.546222,50.6994521 103.925503,49.5937003 104.491508,49.433235 C105.060431,49.2669345 105.59726,50.1101068 105.693539,51.317973" id="Fill-25" fill="#598AE2"></path>
                    <path d="M39.3420093,91.3972474 C39.441206,92.6051135 39.0619244,93.7108654 38.4959195,93.8713307 C37.9299146,94.0405487 37.3930852,93.1915413 37.296806,91.9895103 C37.2005268,90.7816441 37.5798084,89.6758923 38.1516484,89.5125094 C38.7147358,89.3491265 39.2515652,90.1922988 39.3420093,91.3972474" id="Fill-27" fill="#598AE2"></path>
                    <path d="M46.7184537,86.946815 C46.8176504,88.1517636 46.4325337,89.2575154 45.8665288,89.4238158 C45.3121941,89.5871987 44.766612,88.7381913 44.6674153,87.5332427 C44.5769712,86.3282942 44.9562528,85.2137896 45.5193402,85.0591594 C46.0882626,84.8957766 46.6221745,85.7389488 46.7184537,86.946815" id="Fill-29" fill="#598AE2"></path>
                    <path d="M54.0951898,82.4850041 C54.1827164,83.6928703 53.8063523,84.8073748 53.2403474,84.9678401 C52.6801776,85.1253878 52.1345955,84.2763805 52.0412339,83.0801845 C51.9507898,81.8723184 52.3271539,80.763649 52.8902412,80.6061012 C53.4591637,80.4398008 53.9959931,81.2800555 54.0951898,82.4850041" id="Fill-31" fill="#598AE2"></path>
                    <path d="M61.4631733,78.0374892 C61.556535,79.2424378 61.1801709,80.3540248 60.6112484,80.5174077 C60.0539962,80.6749554 59.5142492,79.8347007 59.4121349,78.6297521 C59.3187733,77.4248035 59.6951374,76.3132166 60.2640598,76.1527513 C60.8300647,75.9922859 61.3698117,76.8354582 61.4631733,78.0374892" id="Fill-33" fill="#598AE2"></path>
                    <path d="M68.8367002,73.584431 C68.9242267,74.7864621 68.5507802,75.8951315 67.9876928,76.0643495 C67.4216879,76.2248148 66.8819409,75.378725 66.7798267,74.1708588 C66.686465,72.9688278 67.0715818,71.8572408 67.6346691,71.699693 C68.1948389,71.5363102 68.740421,72.3765649 68.8367002,73.584431" id="Fill-35" fill="#598AE2"></path>
                </g>
                <g id="Group-2" transform="translate(123.500000, 118.039378)">
                    <path d="M38.5,3.97337698 L38.5,13.973377 C38.5,14.8018041 39.1715729,15.473377 40,15.473377 C40.8284271,15.473377 41.5,14.8018041 41.5,13.973377 L41.5,3.97337698 C41.5,3.14494985 40.8284271,2.47337698 40,2.47337698 C39.1715729,2.47337698 38.5,3.14494985 38.5,3.97337698 Z M38.5,23.973377 L38.5,33.973377 C38.5,34.8018041 39.1715729,35.473377 40,35.473377 C40.8284271,35.473377 41.5,34.8018041 41.5,33.973377 L41.5,23.973377 C41.5,23.1449499 40.8284271,22.473377 40,22.473377 C39.1715729,22.473377 38.5,23.1449499 38.5,23.973377 Z M38.5,43.973377 L38.5,53.973377 C38.5,54.8018041 39.1715729,55.473377 40,55.473377 C40.8284271,55.473377 41.5,54.8018041 41.5,53.973377 L41.5,43.973377 C41.5,43.1449499 40.8284271,42.473377 40,42.473377 C39.1715729,42.473377 38.5,43.1449499 38.5,43.973377 Z M38.5,63.973377 L38.5,73.973377 C38.5,74.8018041 39.1715729,75.473377 40,75.473377 C40.8284271,75.473377 41.5,74.8018041 41.5,73.973377 L41.5,63.973377 C41.5,63.1449499 40.8284271,62.473377 40,62.473377 C39.1715729,62.473377 38.5,63.1449499 38.5,63.973377 Z M38.5,83.973377 L38.5,93.973377 C38.5,94.8018041 39.1715729,95.473377 40,95.473377 C40.8284271,95.473377 41.5,94.8018041 41.5,93.973377 L41.5,83.973377 C41.5,83.1449499 40.8284271,82.473377 40,82.473377 C39.1715729,82.473377 38.5,83.1449499 38.5,83.973377 Z M38.5,103.973377 L38.5,113.973377 C38.5,114.801804 39.1715729,115.473377 40,115.473377 C40.8284271,115.473377 41.5,114.801804 41.5,113.973377 L41.5,103.973377 C41.5,103.14495 40.8284271,102.473377 40,102.473377 C39.1715729,102.473377 38.5,103.14495 38.5,103.973377 Z M38.5,123.973377 L38.5,133.973377 C38.5,134.801804 39.1715729,135.473377 40,135.473377 C40.8284271,135.473377 41.5,134.801804 41.5,133.973377 L41.5,123.973377 C41.5,123.14495 40.8284271,122.473377 40,122.473377 C39.1715729,122.473377 38.5,123.14495 38.5,123.973377 Z M38.5,143.973377 L38.5,153.973377 C38.5,154.801804 39.1715729,155.473377 40,155.473377 C40.8284271,155.473377 41.5,154.801804 41.5,153.973377 L41.5,143.973377 C41.5,143.14495 40.8284271,142.473377 40,142.473377 C39.1715729,142.473377 38.5,143.14495 38.5,143.973377 Z M38.5,163.973377 L38.5,173.973377 C38.5,174.801804 39.1715729,175.473377 40,175.473377 C40.8284271,175.473377 41.5,174.801804 41.5,173.973377 L41.5,163.973377 C41.5,163.14495 40.8284271,162.473377 40,162.473377 C39.1715729,162.473377 38.5,163.14495 38.5,163.973377 Z M38.5,183.973377 L38.5,193.973377 C38.5,194.801804 39.1715729,195.473377 40,195.473377 C40.8284271,195.473377 41.5,194.801804 41.5,193.973377 L41.5,183.973377 C41.5,183.14495 40.8284271,182.473377 40,182.473377 C39.1715729,182.473377 38.5,183.14495 38.5,183.973377 Z M38.5,203.973377 L38.5,213.973377 C38.5,214.801804 39.1715729,215.473377 40,215.473377 C40.8284271,215.473377 41.5,214.801804 41.5,213.973377 L41.5,203.973377 C41.5,203.14495 40.8284271,202.473377 40,202.473377 C39.1715729,202.473377 38.5,203.14495 38.5,203.973377 Z M38.5,223.973377 L38.5,233.973377 C38.5,234.801804 39.1715729,235.473377 40,235.473377 C40.8284271,235.473377 41.5,234.801804 41.5,233.973377 L41.5,223.973377 C41.5,223.14495 40.8284271,222.473377 40,222.473377 C39.1715729,222.473377 38.5,223.14495 38.5,223.973377 Z M38.5,243.973377 L38.5,253.973377 C38.5,254.801804 39.1715729,255.473377 40,255.473377 C40.8284271,255.473377 41.5,254.801804 41.5,253.973377 L41.5,243.973377 C41.5,243.14495 40.8284271,242.473377 40,242.473377 C39.1715729,242.473377 38.5,243.14495 38.5,243.973377 Z M38.5,263.973377 L38.5,273.973377 C38.5,274.801804 39.1715729,275.473377 40,275.473377 C40.8284271,275.473377 41.5,274.801804 41.5,273.973377 L41.5,263.973377 C41.5,263.14495 40.8284271,262.473377 40,262.473377 C39.1715729,262.473377 38.5,263.14495 38.5,263.973377 Z M38.5,283.973377 L38.5,293.973377 C38.5,294.801804 39.1715729,295.473377 40,295.473377 C40.8284271,295.473377 41.5,294.801804 41.5,293.973377 L41.5,283.973377 C41.5,283.14495 40.8284271,282.473377 40,282.473377 C39.1715729,282.473377 38.5,283.14495 38.5,283.973377 Z M38.5,303.973377 L38.5,304.447867 C38.5,305.276294 39.1715729,305.947867 40,305.947867 C40.8284271,305.947867 41.5,305.276294 41.5,304.447867 L41.5,303.973377 C41.5,303.14495 40.8284271,302.473377 40,302.473377 C39.1715729,302.473377 38.5,303.14495 38.5,303.973377 Z" id="Line" fill="#FFFFFF" fill-rule="nonzero"></path>
                    <g id="Group-4" transform="translate(0.623086, 140.960622)">
                        <g id="Rectangle">
                            <use fill="black" fill-opacity="1" filter="url(#filter-44)" xlink:href="#path-43"></use>
                            <use fill="#FDFEFF" fill-rule="evenodd" xlink:href="#path-43"></use>
                        </g>
                        <path d="M23.52297,18 L23.52297,6.7265625 L21.5307825,6.7265625 L18.58547,8.796875 L18.58547,10.6953125 L21.4995325,8.6484375 L21.5464075,8.6484375 L21.5464075,18 L23.52297,18 Z M30.3872195,18.2265625 C33.145032,18.2265625 34.785657,15.953125 34.785657,12.34375 C34.785657,8.734375 33.129407,6.5 30.3872195,6.5 C27.6372195,6.5 25.973157,8.75 25.973157,12.3515625 C25.973157,15.96875 27.6215945,18.2265625 30.3872195,18.2265625 Z M30.3872195,16.578125 C28.8872195,16.578125 28.004407,15 28.004407,12.34375 C28.004407,9.734375 28.9028445,8.1484375 30.3872195,8.1484375 C31.863782,8.1484375 32.7465945,9.71875 32.7465945,12.3515625 C32.7465945,15.0078125 31.879407,16.578125 30.3872195,16.578125 Z M44.0717815,18 L44.0717815,16.3515625 L38.8374065,16.3515625 L38.8374065,16.3125 L41.626469,13.5546875 C43.1030315,12.0625 43.8999065,11.046875 43.8999065,9.703125 C43.8999065,7.875 42.2905315,6.5 40.0405315,6.5 C37.704594,6.5 36.0405315,7.9921875 36.0405315,10.0703125 L36.0405315,10.09375 L37.9311565,10.09375 L37.9311565,10.0625 C37.9311565,8.9453125 38.8061565,8.1171875 39.9780315,8.1171875 C41.095219,8.1171875 41.9311565,8.859375 41.9311565,9.7890625 C41.9311565,10.6328125 41.579594,11.2109375 40.298344,12.515625 L36.1499065,16.640625 L36.1499065,18 L44.0717815,18 Z M51.011218,18 L51.011218,12.1484375 L51.073718,12.1484375 L53.511218,17.6171875 L54.901843,17.6171875 L57.339343,12.1484375 L57.401843,12.1484375 L57.401843,18 L59.261218,18 L59.261218,9.4609375 L56.839343,9.4609375 L54.261218,15.4921875 L54.198718,15.4921875 L51.6284055,9.4609375 L49.1596555,9.4609375 L49.1596555,18 L51.011218,18 Z" id="102м" fill="#000000" fill-rule="nonzero"></path>
                    </g>
                    <circle id="Oval" fill="#FFFFFF" cx="40" cy="304.447867" r="3.32569456"></circle>
                    <circle id="Oval" fill="#FFFFFF" cx="40" cy="3.97337698" r="3.32569456"></circle>
                </g>
                <g id="Group-3" transform="translate(277.000000, 0.000000)">
                    <mask id="mask-46" fill="white">
                        <use xlink:href="#path-45"></use>
                    </mask>
                    <g id="Clip-2"></g>
                    <path d="M23.7323596,3.13326346 C20.9636481,1.53559038 18.5847923,2.03725385 17.4549462,4.07627308 C16.4251385,2.79195577 15.2438019,1.68859038 13.9697827,0.950071154 C11.1716481,-0.665255769 8.77219615,-0.145938462 7.65117692,1.94457115 C7.43050385,1.78862885 7.21571538,1.61944615 6.9921,1.48851346 C3.13914808,-0.7344 0.0129461538,1.044225 -0.000336390482,5.46798462 C-0.0135346154,9.88733077 3.09354231,15.2746962 6.94649423,17.4976096 L33.6111577,32.8932346 C37.458225,35.1146769 40.5858981,33.3286962 40.5991718,28.9078788 C40.6109077,24.4870615 37.5053019,19.1070519 33.6567635,16.8856096 C32.5504558,16.2441865 31.5280038,15.9734942 30.5967635,15.9602538 C30.6247154,15.693975 30.6717923,15.4497635 30.6747346,15.1614173 C30.6850327,10.7420712 27.5794269,5.35617692 23.7323596,3.13326346" id="Fill-1" fill="#FEFFFF" mask="url(#mask-46)"></path>
                </g>
                <g id="Group-3" transform="translate(0.000000, 34.000000)">
                    <mask id="mask-48" fill="white">
                        <use xlink:href="#path-47"></use>
                    </mask>
                    <g id="Clip-2"></g>
                    <path d="M20.5412792,3.81589167 C23.9167792,1.86835 26.8085292,2.4811 28.1827375,4.96614167 C29.4386958,3.39843333 30.8774042,2.056475 32.4343625,1.15705833 C35.8367375,-0.810191667 38.7589458,-0.177733333 40.1241958,2.368225 C40.3929458,2.1801 40.6545292,1.97226667 40.9286542,1.81280833 C45.6210292,-0.896191667 49.4283208,1.27351667 49.4427055,6.65926667 C49.4587792,12.043225 45.6765708,18.6025167 40.9841958,21.309725 L8.50665417,40.0595167 C3.82144583,42.7649333 0.0141541667,40.5880583 -0.000230559982,35.2058917 C-0.0163041667,29.8201417 3.7641125,23.2680167 8.45290417,20.5626 C9.8002375,19.7850167 11.0472375,19.4535583 12.1831542,19.4356417 C12.1455292,19.1131417 12.0899875,18.8139333 12.0899875,18.4627667 C12.0720708,13.0806 15.8560708,6.52130833 20.5412792,3.81589167" id="Fill-1" fill="#FEFFFF" mask="url(#mask-48)"></path>
                </g>
            </g>
        </g>
    </g>
</svg>